<?xml version="1.0" standalone="no"?>
<!DOCTYPE svg PUBLIC "-//W3C//DTD SVG 20010904//EN"
 "http://www.w3.org/TR/2001/REC-SVG-20010904/DTD/svg10.dtd">
<svg version="1.0" xmlns="http://www.w3.org/2000/svg"
 width="500.000000pt" height="500.000000pt" viewBox="0 0 500.000000 500.000000"
 preserveAspectRatio="xMidYMid meet">
<metadata>
Created by potrace 1.14, written by Peter Selinger 2001-2017
</metadata>
<g transform="translate(0.000000,500.000000) scale(0.100000,-0.100000)"
fill="#000000" stroke="none">
<path d="M0 2500 l0 -2500 2500 0 2500 0 0 2500 0 2500 -2500 0 -2500 0 0
-2500z m3262 1422 l107 -187 -972 -3 -972 -3 -211 -366 c-115 -202 -214 -368
-220 -370 -5 -2 -106 164 -223 369 l-215 371 28 51 c16 28 64 113 108 189 l80
137 1191 0 1192 -1 107 -187z m1046 51 c44 -76 92 -161 108 -189 l28 -51 -591
-1024 -592 -1024 -220 -3 c-122 -1 -221 0 -221 4 0 3 212 372 471 821 258 448
475 825 481 838 9 19 -16 67 -197 381 -114 197 -209 364 -212 371 -4 11 76 13
430 13 l435 0 80 -137z m-2499 -1639 l479 -829 431 -3 c237 -1 431 -4 431 -6
0 -3 -96 -170 -213 -373 l-213 -368 -224 0 -224 0 -588 1018 c-323 560 -588
1024 -588 1030 0 10 34 71 172 310 24 41 44 65 49 60 5 -5 225 -382 488 -839z"/>
</g>
</svg>
